<svg xmlns="http://www.w3.org/2000/svg" width="1024" height="1024" viewBox="0 0 1024 1024">
  <defs>
    <filter id="shadow" x="-20%" y="-20%" width="140%" height="150%">
      <feDropShadow dx="0" dy="22" stdDeviation="24" flood-color="#0b4d3a" flood-opacity="0.14"/>
    </filter>
    <linearGradient id="green" x1="230" y1="210" x2="790" y2="820" gradientUnits="userSpaceOnUse">
      <stop stop-color="#72db9b"/>
      <stop offset="1" stop-color="#24a96b"/>
    </linearGradient>
  </defs>

  <rect width="1024" height="1024" rx="224" fill="#f8fffb"/>
  <circle cx="512" cy="512" r="348" fill="#ffffff" stroke="#dff6e9" stroke-width="20"/>

  <g filter="url(#shadow)">
    <path d="M262 520V442c0-146 112-264 250-264s250 118 250 264v78"
      fill="none" stroke="url(#green)" stroke-width="76" stroke-linecap="round"/>

    <rect x="199" y="456" width="142" height="276" rx="71" fill="#31b875"/>
    <rect x="683" y="456" width="142" height="276" rx="71" fill="#31b875"/>
    <rect x="236" y="508" width="52" height="172" rx="26" fill="#bdf0d0"/>
    <rect x="736" y="508" width="52" height="172" rx="26" fill="#bdf0d0"/>

    <rect x="327" y="548" width="370" height="72" rx="36" fill="#126347"/>
    <rect x="281" y="495" width="88" height="178" rx="30" fill="#1d8f60"/>
    <rect x="655" y="495" width="88" height="178" rx="30" fill="#1d8f60"/>
    <rect x="236" y="520" width="64" height="128" rx="24" fill="#126347"/>
    <rect x="724" y="520" width="64" height="128" rx="24" fill="#126347"/>

    <rect x="441" y="536" width="142" height="96" rx="42" fill="#f8fffb"/>
    <path d="M477 584h70" stroke="#52ca87" stroke-width="24" stroke-linecap="round"/>
  </g>
</svg>
